<?xml version="1.0" encoding="UTF-8" standalone="no"?>
<svg
   xmlns:dc="http://purl.org/dc/elements/1.1/"
   xmlns:cc="http://creativecommons.org/ns#"
   xmlns:rdf="http://www.w3.org/1999/02/22-rdf-syntax-ns#"
   xmlns:svg="http://www.w3.org/2000/svg"
   xmlns="http://www.w3.org/2000/svg"
   xmlns:sodipodi="http://sodipodi.sourceforge.net/DTD/sodipodi-0.dtd"
   xmlns:inkscape="http://www.inkscape.org/namespaces/inkscape"
   width="100"
   height="100"
   viewBox="0 0 100 100"
   id="svg2"
   version="1.1"
   inkscape:version="0.91 r13725"
   sodipodi:docname="google+.svg">
  <metadata
     id="metadata10">
    <rdf:RDF>
      <cc:Work
         rdf:about="">
        <dc:format>image/svg+xml</dc:format>
        <dc:type
           rdf:resource="http://purl.org/dc/dcmitype/StillImage" />
      </cc:Work>
    </rdf:RDF>
  </metadata>
  <defs
     id="defs8" />
  <sodipodi:namedview
     pagecolor="#ffffff"
     bordercolor="#666666"
     borderopacity="1"
     objecttolerance="10"
     gridtolerance="10"
     guidetolerance="10"
     inkscape:pageopacity="0"
     inkscape:pageshadow="2"
     inkscape:window-width="1920"
     inkscape:window-height="955"
     id="namedview6"
     showgrid="true"
     inkscape:zoom="7.89"
     inkscape:cx="50"
     inkscape:cy="50"
     inkscape:window-x="0"
     inkscape:window-y="1"
     inkscape:window-maximized="1"
     inkscape:current-layer="svg2">
    <inkscape:grid
       type="xygrid"
       id="grid4138" />
  </sodipodi:namedview>
  <path
     d="M 37.273195,27.726805 C 24.959565,27.726805 15,37.686373 15,50 15,62.313627 24.959565,72.273195 37.273195,72.273195 50.127726,72.273195 58.654295,63.236545 58.654295,50.509281 58.654295,49.045645 58.494866,47.931507 58.303954,46.817871 L 37.273195,46.817871 37.273195,54.455325 49.904295,54.455325 C 49.395207,57.732589 46.086825,64.063236 37.273195,64.063236 29.668655,64.063236 23.462895,57.763631 23.462895,50 23.462895,42.236369 29.668655,35.936764 37.273195,35.936764 41.600459,35.936764 44.495111,37.782629 46.149659,39.373539 L 52.196046,33.549319 C 48.314226,29.922047 43.286825,27.726805 37.273195,27.726805 Z M 72.273195,40.455325 72.273195,46.817871 65.908935,46.817871 65.908935,53.182129 72.273195,53.182129 72.273195,59.544675 78.635742,59.544675 78.635742,53.182129 85,53.182129 85,46.817871 78.635742,46.817871 78.635742,40.455325 72.273195,40.455325 Z"
     id="path4"
     inkscape:connector-curvature="0"
     style="fill:#ffffff" />
</svg>
