<?xml version="1.0" encoding="UTF-8" standalone="no"?>
<svg
   xmlns:dc="http://purl.org/dc/elements/1.1/"
   xmlns:cc="http://creativecommons.org/ns#"
   xmlns:rdf="http://www.w3.org/1999/02/22-rdf-syntax-ns#"
   xmlns:svg="http://www.w3.org/2000/svg"
   xmlns="http://www.w3.org/2000/svg"
   xmlns:sodipodi="http://sodipodi.sourceforge.net/DTD/sodipodi-0.dtd"
   xmlns:inkscape="http://www.inkscape.org/namespaces/inkscape"
   viewBox="0 0 100 100"
   id="svg2"
   version="1.1"
   inkscape:version="0.91 r13725"
   sodipodi:docname="rss.svg"
   width="100"
   height="100">
  <sodipodi:namedview
     pagecolor="#ffffff"
     bordercolor="#666666"
     borderopacity="1"
     objecttolerance="10"
     gridtolerance="10"
     guidetolerance="10"
     inkscape:pageopacity="0"
     inkscape:pageshadow="2"
     inkscape:window-width="1920"
     inkscape:window-height="955"
     id="namedview8"
     showgrid="true"
     inkscape:zoom="2.36"
     inkscape:cx="-23.305085"
     inkscape:cy="50"
     inkscape:window-x="0"
     inkscape:window-y="1"
     inkscape:window-maximized="1"
     inkscape:current-layer="svg2">
    <inkscape:grid
       type="xygrid"
       id="grid4136" />
  </sodipodi:namedview>
  <metadata
     id="metadata10">
    <rdf:RDF>
      <cc:Work
         rdf:about="">
        <dc:format>image/svg+xml</dc:format>
        <dc:type
           rdf:resource="http://purl.org/dc/dcmitype/StillImage" />
        <dc:title></dc:title>
      </cc:Work>
    </rdf:RDF>
  </metadata>
  <defs
     id="defs8" />
  <!-- build:remove -->
  <rect
     x="0"
     y="0"
     width="100%"
     height="100%"
     rx="5"
     ry="5"
     id="rect5"
     fill="#d66d06" />
  <!-- endbuild -->
  <path
     d="M 34.19784,75.150814 C 34.19784,80.308106 30.005946,84.5 24.84864,84.5 19.691338,84.5 15.499448,80.308106 15.499448,75.150814 15.499448,69.993521 19.691338,65.801626 24.84864,65.801626 30.005946,65.801626 34.19784,69.968102 34.19784,75.150814 Z M 15.499448,38.948107 15.499448,52.794042 C 32.902157,52.971894 47.002154,67.097299 47.180004,84.474601 L 61.025948,84.474601 C 60.848108,59.424859 40.574587,39.125936 15.499448,38.948107 Z M 15.499448,29.268649 C 30.209178,29.344845 44.029731,35.086478 54.420542,45.502704 64.836753,55.918913 70.603793,69.764871 70.654598,84.5 L 84.500552,84.5 C 84.424322,46.417299 53.58217,15.54972 15.499448,15.422689 L 15.499448,29.268649 15.499448,29.268649 Z"
     id="path4"
     inkscape:connector-curvature="0"
     style="fill:#ffffff" />
</svg>
