<?xml version="1.0" encoding="UTF-8" standalone="no"?>
<svg
   xmlns:dc="http://purl.org/dc/elements/1.1/"
   xmlns:cc="http://creativecommons.org/ns#"
   xmlns:rdf="http://www.w3.org/1999/02/22-rdf-syntax-ns#"
   xmlns:svg="http://www.w3.org/2000/svg"
   xmlns="http://www.w3.org/2000/svg"
   xmlns:sodipodi="http://sodipodi.sourceforge.net/DTD/sodipodi-0.dtd"
   xmlns:inkscape="http://www.inkscape.org/namespaces/inkscape"
   version="1.1"
   id="social-weibo"
   x="0px"
   y="0px"
   viewBox="0 0 100 100"
   enable-background="new 0 0 724.7 587.1"
   xml:space="preserve"
   inkscape:version="0.91 r13725"
   sodipodi:docname="social-weibo.svg"
   width="100"
   height="100"><metadata
     id="metadata17"><rdf:RDF><cc:Work
         rdf:about=""><dc:format>image/svg+xml</dc:format><dc:type
           rdf:resource="http://purl.org/dc/dcmitype/StillImage" /><dc:title /></cc:Work></rdf:RDF></metadata><defs
     id="defs15" /><sodipodi:namedview
     pagecolor="#ffffff"
     bordercolor="#666666"
     borderopacity="1"
     objecttolerance="10"
     gridtolerance="10"
     guidetolerance="10"
     inkscape:pageopacity="0"
     inkscape:pageshadow="2"
     inkscape:window-width="1920"
     inkscape:window-height="955"
     id="namedview13"
     showgrid="true"
     inkscape:showpageshadow="false"
     inkscape:zoom="7.89"
     inkscape:cx="50"
     inkscape:cy="50"
     inkscape:window-x="-13"
     inkscape:window-y="0"
     inkscape:window-maximized="0"
     inkscape:current-layer="social-weibo"><inkscape:grid
       type="xygrid"
       id="grid4137" /></sodipodi:namedview><rect
     x="0"
     y="0"
     rx="10"
     ry="10"
     width="100%"
     height="100%"
     fill="transparent"
     id="rect7"
     style="fill:none" /><g
     id="g4153"><path
       inkscape:connector-curvature="0"
       id="path1"
       d="M 68.453125,17.595703 C 67.090404,17.619084 65.727902,17.772983 64.386719,18.058594 62.730936,18.411806 61.681923,20.046727 62.035156,21.691406 62.388389,23.34712 64.012189,24.394237 65.667969,24.041016 70.75674,22.959285 76.265066,24.53846 79.996094,28.677734 83.727121,32.817016 84.741212,38.457288 83.140625,43.402344 82.621814,45.013905 83.505557,46.735111 85.117188,47.253906 86.72882,47.772691 88.451895,46.889581 88.970703,45.289062 L 88.970703,45.279297 C 91.222567,38.336352 89.797315,30.399092 84.542969,24.582031 80.273812,19.846696 74.358251,17.494386 68.453125,17.595703 Z M 69.300781,28.478516 C 68.41787,28.438331 67.529442,28.511571 66.660156,28.699219 65.236185,28.99725 64.330866,30.410076 64.628906,31.833984 64.937985,33.257901 66.34097,34.164536 67.753906,33.855469 69.453841,33.491213 71.307332,34.020635 72.554688,35.400391 73.802044,36.79119 74.144405,38.678276 73.603516,40.333984 73.161976,41.713746 73.913831,43.203689 75.304688,43.65625 76.695544,44.097774 78.174371,43.34783 78.626953,41.957031 79.719767,38.568341 79.03555,34.703975 76.474609,31.867188 74.553903,29.739596 71.949515,28.599071 69.300781,28.478516 Z"
       fill="#ff9933" /><path
       fill="#e6162d"
       inkscape:connector-curvature="0"
       id="path2"
       d="M 43.612373,77.653628 C 30.366119,78.967158 18.930188,72.97348 18.069181,64.286515 17.208174,55.588513 27.25325,47.48656 40.488466,46.173028 53.734723,44.859505 65.170655,50.853177 66.020623,59.540141 66.892667,68.238142 56.847593,76.351133 43.612373,77.653628 M 70.093846,48.789054 C 68.967915,48.446877 68.195218,48.226116 68.78026,46.747011 70.060732,43.534931 70.193193,40.764376 68.802324,38.777522 66.208265,35.068728 59.099441,35.267411 50.952997,38.67818 50.952997,38.67818 48.392053,39.793021 49.054366,37.773059 50.30172,33.744154 50.114064,30.377544 48.171279,28.423806 43.755874,23.997536 31.999822,28.589372 21.921631,38.667144 14.382303,46.206145 10.000001,54.20875 10.000001,61.129623 10.000001,74.353243 26.966245,82.4 43.557179,82.4 65.314151,82.4 79.785685,69.7614 79.785685,59.727788 79.796742,53.656848 74.685879,50.212969 70.093843,48.789054" /><path
       fill="#ffffff"
       inkscape:connector-curvature="0"
       id="path3"
       d="M 15.883549,62.156166 C 15.883549,71.472303 28.014909,79.022347 42.97214,79.022347 57.929369,79.022347 70.060732,71.472303 70.060732,62.156166 70.060732,52.84003 57.929369,45.289986 42.97214,45.289986 28.014909,45.289986 15.883549,52.84003 15.883549,62.156166" /><path
       inkscape:connector-curvature="0"
       id="path4"
       d="M 44.340918,61.913332 C 43.877301,62.708069 42.850716,63.083361 42.055942,62.752221 41.261165,62.432118 41.018318,61.538032 41.470897,60.765368 41.934516,59.992702 42.916948,59.61741 43.700684,59.926478 44.495458,60.213465 44.782462,61.10755 44.340918,61.913332 M 40.113156,67.321985 C 38.832685,69.364027 36.084087,70.258113 34.019879,69.319875 31.988786,68.39268 31.381666,66.01949 32.662138,64.0216 33.93157,62.034746 36.580822,61.151703 38.633991,62.012673 40.709238,62.906751 41.371552,65.257869 40.113156,67.321985 M 44.925962,52.862103 C 38.622952,51.217433 31.50309,54.363288 28.765531,59.915433 25.972779,65.577972 28.677223,71.869675 35.035425,73.922754 41.636476,76.053102 49.407613,72.785833 52.112055,66.681777 54.783384,60.699142 51.449743,54.550933 44.925962,52.862103" /></g></svg>