<svg xmlns="http://www.w3.org/2000/svg" width="100" height="100" viewBox="0 0 100 100"><path d="M85 28.29a28.715 28.715 0 0 1-8.248 2.262 14.404 14.404 0 0 0 6.314-7.946 28.755 28.755 0 0 1-9.12 3.486 14.343 14.343 0 0 0-10.482-4.536c-7.932 0-14.362 6.43-14.362 14.36 0 1.127.127 2.223.372 3.274-11.936-.6-22.518-6.316-29.6-15.005a14.293 14.293 0 0 0-1.945 7.22c0 4.983 2.534 9.378 6.388 11.954a14.303 14.303 0 0 1-6.505-1.798l-.002.18c0 6.96 4.952 12.764 11.522 14.083a14.384 14.384 0 0 1-6.486.246c1.828 5.707 7.13 9.86 13.416 9.975a28.816 28.816 0 0 1-17.836 6.147 29.22 29.22 0 0 1-3.426-.2 40.65 40.65 0 0 0 22.014 6.452c26.416 0 40.86-21.884 40.86-40.86 0-.624-.013-1.243-.04-1.86A29.187 29.187 0 0 0 85 28.292" fill="#fff"/></svg>