<svg xmlns="http://www.w3.org/2000/svg" width="100" height="100" viewBox="0 0 100 100"><path fill="#6aa9e0" d="M0 0v100h100V0H0zm63.463 21.557c4.13 0 7.864 1.744 10.484 4.535a28.755 28.755 0 0 0 9.12-3.487 14.407 14.407 0 0 1-6.315 7.948A28.713 28.713 0 0 0 85 28.29a29.186 29.186 0 0 1-7.166 7.435c.028.615.04 1.234.04 1.857 0 18.978-14.445 40.86-40.86 40.86A40.647 40.647 0 0 1 15 71.993c1.123.133 2.267.2 3.426.2 6.728 0 12.92-2.295 17.836-6.147-6.285-.116-11.59-4.27-13.416-9.975a14.355 14.355 0 0 0 6.486-.246c-6.57-1.32-11.52-7.124-11.52-14.082v-.18a14.308 14.308 0 0 0 6.506 1.797 14.357 14.357 0 0 1-6.388-11.956c0-2.632.707-5.097 1.943-7.218C26.956 32.874 37.54 38.59 49.475 39.19a14.407 14.407 0 0 1-.373-3.272c0-7.93 6.43-14.36 14.36-14.36z"/></svg>